<?xml version="1.0" encoding="UTF-8"?>
<svg id="Layer_1" data-name="Layer 1" xmlns="http://www.w3.org/2000/svg" viewBox="0 0 960 960">
  <defs>
    <style>
      .cls-1 {
        fill: #7badff;
      }

      .cls-1, .cls-2 {
        stroke-width: 0px;
      }

      .cls-2 {
        fill: #002258;
      }
    </style>
  </defs>
  <rect class="cls-2" x="1.13" y="18.13" width="957.66" height="923.46" rx="169.54" ry="169.54"/>
  <g>
    <path class="cls-1" d="M526.15,588.91v65.17c.52,3.76-1.56,7.4-5.07,8.86-12.39,4.31-25.23,7.18-38.28,8.54-16.48,1.96-33.07,2.91-49.68,2.85-23.57.11-47.06-2.76-69.92-8.54-21.4-5.37-41.8-14.13-60.43-25.94-17.95-11.43-33.79-25.88-46.82-42.71-13.5-17.68-23.78-37.6-30.37-58.84-7.5-24.6-11.13-50.21-10.76-75.93-.85-39.24,8.76-78.01,27.84-112.31,18.52-32.23,45.99-58.39,79.09-75.3,37.91-18.78,79.82-28.01,122.11-26.89,16.38-.16,32.76.69,49.04,2.53,11.33,1.23,22.48,3.78,33.23,7.59,2.35,1.78,3.55,4.68,3.16,7.59v69.6c0,3.8-1.49,5.06-4.43,3.8-11.85-5.45-24.42-9.18-37.33-11.07-15.28-2.39-30.72-3.55-46.18-3.48-25.33-.71-50.41,5.18-72.77,17.08-19.78,10.92-36.03,27.28-46.82,47.14-11.43,21.95-17.09,46.44-16.45,71.18-.35,17.62,2.32,35.17,7.91,51.89,4.88,14.08,12.28,27.16,21.83,38.59,8.8,10.58,19.54,19.39,31.64,25.94,11.88,6.35,24.53,11.14,37.64,14.24,12.74,3.1,25.81,4.69,38.92,4.75,14.26.08,28.52-.55,42.71-1.9,11.96-1.16,23.74-3.71,35.11-7.59,1.68-1.27,2.94-1.58,3.8-.95,1.02,1.11,1.48,2.62,1.27,4.11h0Z"/>
    <path class="cls-1" d="M596.39,426.93h-37.97c-2.96-.42-4.43-1.9-4.43-4.43v-64.54c-.3-2.14,1.19-4.13,3.33-4.43.37-.05.74-.05,1.1,0h37.97v-10.12c-.13-13.25.93-26.48,3.16-39.55,1.93-11.06,5.34-21.8,10.13-31.96,8.18-16.99,20.6-31.59,36.06-42.39,18.47-11.77,40.13-17.52,62.01-16.45,6.13-.03,12.26.28,18.35.95,4.98.52,9.87,1.69,14.55,3.48,2.7.91,4.5,3.47,4.43,6.33v62.64c0,2.96-1.69,4.01-5.07,3.16-3.14-.43-6.31-.65-9.49-.63h-9.49c-6.91-.15-13.75,1.37-19.94,4.43-5.92,3.21-10.43,8.51-12.65,14.87-3.08,9.06-4.47,18.6-4.12,28.16v17.08h53.16c2.52,0,4.11.42,4.74,1.27.71,1.13,1.05,2.46.95,3.8v63.91c0,2.96-1.9,4.43-5.69,4.43h-53.16v235.38c-.02,1.32-.34,2.62-.94,3.8-.63,1.27-2.21,1.9-4.75,1.9h-77.19c-3.38,0-5.06-1.9-5.06-5.69v-235.38Z"/>
  </g>
</svg>